<?xml version="1.0" standalone="no"?><!DOCTYPE svg PUBLIC "-//W3C//DTD SVG 1.1//EN" "http://www.w3.org/Graphics/SVG/1.1/DTD/svg11.dtd"><svg t="1567157619028" class="icon" viewBox="0 0 1024 1024" version="1.1" xmlns="http://www.w3.org/2000/svg" p-id="1253" xmlns:xlink="http://www.w3.org/1999/xlink" width="64" height="64"><defs><style type="text/css"></style></defs><path d="M511.998946 1024C232.084622 1024 3.063599 793.598251 3.063599 511.998834a509.994215 509.994215 0 0 1 30.203394-173.358151C104.375577 141.616599 292.546218 0 511.998946 0c279.914324 0 508.935347 230.399417 508.935347 511.998834S791.91327 1024 511.998946 1024z m0-73.142357c239.926897 0 436.230297-197.484715 436.230297-438.856477S751.925842 73.142357 511.998946 73.142357 75.768649 270.628238 75.768649 511.998834 272.072049 950.854144 511.998946 950.854144zM548.357301 292.570596v241.370595l3.629072 3.655894L730.114094 716.797668c14.540777 14.628238 14.540777 36.571762 0 51.194169s-36.352525 14.628238-50.893301 0L501.093072 588.798251c-3.634903-3.65706-25.446651-25.600583-25.446651-40.23232V292.570596c0-21.942357 14.540777-36.571762 36.352525-36.571762s36.358356 14.629404 36.358355 36.571762z" p-id="1254"></path></svg>