<?xml version="1.0" standalone="no"?><!DOCTYPE svg PUBLIC "-//W3C//DTD SVG 1.1//EN" "http://www.w3.org/Graphics/SVG/1.1/DTD/svg11.dtd"><svg t="1608186521333" class="icon" viewBox="0 0 1942 1024" version="1.1" xmlns="http://www.w3.org/2000/svg" p-id="2768" xmlns:xlink="http://www.w3.org/1999/xlink" width="60.6875" height="32"><defs><style type="text/css"></style></defs><path d="M908.086407 767.472434H523.838154c-17.908128 0-32.74529-6.139429-45.0254-18.419538-12.280109-12.278859-18.419538-27.117272-18.419538-45.024149 0-17.908128 6.139429-32.746541 18.419538-45.536811 12.280109-12.79152 27.117272-18.930949 45.0254-18.930949h384.248253c17.908128 0 32.74529 6.139429 45.53681 18.930949 12.79152 12.790269 18.930949 27.628683 18.930949 45.536811 0 12.790269-3.581125 25.070379-11.256037 35.815005l140.191556-145.308165V255.822894H952.088985c-18.930949 0-35.304845-4.092536-49.119186-12.790269-13.814341-8.698984-24.558968-18.930949-33.256701-31.722469-8.697733-12.79152-14.838413-26.605861-18.930949-41.444274-4.093787-14.837163-6.139429-29.164165-6.13943-41.954435V-0.00125h-392.435826c-15.861235 0-30.698397 4.093787-45.025399 12.791519-14.325752 8.697733-27.117272 19.44236-38.37331 32.23388-11.256037 12.79152-19.953771 26.605861-26.605861 42.467096-6.65084 15.861235-9.720555 30.698397-9.720554 45.024149v696.355085c0 16.884056 4.603947 33.769362 13.30168 49.630597 8.698984 15.861235 19.955021 30.186986 33.257951 42.465845 13.302931 12.278859 27.628683 22.000664 42.978507 29.675576 15.349824 7.674912 29.675576 11.256037 42.467095 11.256037H747.428419l198.519886-206.706209c-10.233216 8.187573-23.023485 12.280109-37.861898 12.280109z m-429.273653-364.805893c12.280109-12.79152 27.117272-18.930949 45.0254-18.930949h384.248253c17.908128 0 32.74529 6.139429 45.53681 18.930949s18.930949 27.628683 18.930949 45.53681-6.139429 32.74529-18.930949 45.0254c-12.79152 12.280109-27.628683 18.419538-45.53681 18.419538H523.838154c-17.908128 0-32.74529-6.139429-45.0254-18.419538-12.280109-12.280109-18.419538-27.117272-18.419538-45.0254s6.139429-32.74529 18.419538-45.53681z" p-id="2769"></path><path d="M919.342444 164.749274c3.582376 6.65209 7.674912 12.79152 12.79152 17.908128 5.116608 5.116608 11.256037 7.674912 18.930949 7.674911h150.424772v-16.372645c0-4.093787-0.511411-8.697733-2.045643-14.325752-1.535483-5.629269-5.116608-12.280109-10.744626-19.955021-5.629269-7.674912-14.327002-17.395467-25.071629-28.652754-10.744627-11.256037-25.581789-25.070379-44.001328-41.443024-16.885306-14.838413-31.211058-27.117272-42.467095-36.327666-11.256037-9.209144-20.977842-16.372645-28.652755-21.489253-7.674912-5.115358-14.325752-8.186323-19.95377-9.720555-5.628019-1.535483-11.256037-2.046893-17.396717-2.046893h-2.045643v125.865804c0 4.605197 1.022821 10.744627 2.558304 17.908128 1.534232 7.162251 4.092536 14.325752 7.673661 20.976592zM1019.626459 785.891973c-12.280109 12.280109-24.558968 24.558968-36.839077 37.350487-12.280109 12.79152-23.536146 24.047557-33.769362 34.280773l-25.581789 25.58179-13.302931 13.30293c-6.65209 6.65209-12.280109 14.838413-16.372645 23.536147-1.535483 2.558304-3.069715 7.674912-5.628019 15.349823-2.558304 7.674912-5.116608 15.349824-7.674912 24.047558-2.558304 8.697733-5.116608 16.884056-7.163501 25.070378-2.046893 8.186323-3.581125 14.325752-4.092536 18.419539-1.535483 8.186323-0.512661 13.814341 2.045643 17.395466 2.558304 3.581125 8.186323 4.605197 16.373896 3.069715 4.092536-0.511411 10.231965-2.046893 18.418288-4.093787 8.186323-2.046893 16.885306-4.605197 25.583039-7.163501 8.697733-2.558304 17.395467-5.628019 26.094451-8.697733 8.697733-3.069715 14.837163-5.628019 18.930949-7.674912 4.092536-2.046893 8.186323-4.605197 12.278859-7.674912 4.093787-3.069715 7.674912-6.139429 11.257287-8.697733 0.511411-0.511411 4.092536-4.605197 10.744627-11.256038 6.65084-6.65209 14.325752-14.837163 24.047557-24.558967l33.768112-33.769363 36.839077-36.837826 99.259943-99.259943-85.957013-85.958263c-36.839077 35.817506-70.095778 68.562796-99.259943 98.238372zM1269.822585 672.306278c-4.092536-9.721805-10.233216-18.419538-17.908127-27.117272-7.673662-8.698984-15.348573-14.327002-22.000664-17.908128-6.139429-3.581125-13.814341-5.628019-23.536147-6.652091-9.720555-1.022821-18.418288 2.046893-26.605861 9.721806-3.581125 2.558304-7.673662 6.65209-12.790269 11.256037a1335.097065 1335.097065 0 0 1-13.814342 12.280109l86.979834 85.957013c2.046893-1.535483 4.605197-3.581125 7.163502-6.13943 2.045643-2.046893 4.603947-4.605197 7.16225-7.674912s5.628019-6.14068 9.210395-9.721805c7.674912-7.674912 10.744627-15.349824 10.233216-23.536146-1.024072-8.186323-2.046893-15.348573-4.093787-20.465181z" p-id="2770"></path></svg>